<?xml version="1.0" standalone="no"?>
<!DOCTYPE svg PUBLIC "-//W3C//DTD SVG 20010904//EN"
 "http://www.w3.org/TR/2001/REC-SVG-20010904/DTD/svg10.dtd">
<svg version="1.0" xmlns="http://www.w3.org/2000/svg"
 width="500.000000pt" height="500.000000pt" viewBox="0 0 500.000000 500.000000"
 preserveAspectRatio="xMidYMid meet">

<g transform="translate(0.000000,500.000000) scale(0.100000,-0.100000)"
fill="#000000" stroke="none">
<path d="M2295 4480 c-55 -10 -140 -32 -188 -49 -101 -36 -266 -124 -347 -184
-135 -99 -297 -291 -372 -442 -36 -71 -83 -224 -103 -336 -22 -124 -16 -382
13 -604 27 -201 28 -187 -4 -175 -75 29 -142 3 -173 -69 -46 -108 -23 -274 73
-520 78 -200 129 -256 232 -249 l58 3 13 -80 c21 -129 72 -294 116 -380 143
-275 474 -562 717 -620 153 -36 332 -29 480 20 170 56 395 231 554 428 52 66
120 195 160 305 20 56 76 295 76 324 0 3 24 3 53 1 111 -8 153 40 243 277 75
201 94 271 94 356 0 159 -70 240 -180 208 -24 -7 -45 -12 -45 -11 -1 1 9 94
22 207 30 260 28 548 -5 670 -64 239 -164 411 -338 581 -138 135 -305 236
-494 299 -173 58 -459 76 -655 40z m470 -195 c114 -22 167 -41 276 -97 232
-120 402 -308 500 -553 65 -164 90 -380 69 -617 -11 -139 -46 -315 -73 -378
-14 -32 -15 6 -16 451 -1 512 -2 520 -45 503 -14 -5 -16 -27 -16 -155 l0 -149
-40 0 -40 0 0 158 c0 146 2 160 20 177 42 38 15 95 -45 95 -46 0 -73 -37 -57
-78 6 -15 12 -100 14 -190 l3 -162 -117 0 -118 0 0 -100 0 -100 -80 0 -80 0 0
-30 0 -30 80 0 80 0 0 -145 0 -145 30 0 30 0 2 103 c2 56 3 165 3 242 l0 140
149 3 c97 2 152 -1 156 -8 10 -16 13 -663 3 -659 -4 2 -46 23 -93 46 -148 72
-272 80 -407 26 -85 -34 -132 -81 -158 -156 -23 -69 -24 -68 77 -93 l68 -16 0
-214 c0 -118 -2 -214 -4 -214 -2 0 -20 -7 -41 -16 l-37 -15 3 178 4 178 -32 3
-33 3 0 -257 c0 -226 -2 -260 -17 -276 -9 -10 -27 -18 -40 -18 l-23 0 0 530 0
530 74 0 c53 0 77 4 86 15 25 30 -5 45 -86 45 l-74 0 0 122 0 121 140 142 140
141 0 87 0 87 79 0 c44 0 86 3 95 6 14 5 16 36 16 238 l0 232 -30 22 -30 23 0
-226 0 -225 -95 0 -95 0 0 -103 0 -102 -140 -145 -139 -145 -1 -697 0 -698
-45 0 -45 0 0 830 0 830 44 0 c24 0 58 -8 74 -17 26 -15 34 -16 55 -4 14 8 28
24 31 38 4 13 15 32 25 42 16 16 19 34 18 99 0 73 2 83 26 112 15 17 30 42 33
55 8 33 -13 91 -42 114 -19 15 -24 28 -24 65 0 40 3 47 29 61 59 30 78 94 46
155 -17 33 -61 60 -97 60 -37 0 -88 -37 -104 -76 -19 -45 -5 -93 37 -128 24
-21 29 -32 29 -69 0 -41 -3 -46 -29 -55 -41 -14 -66 -57 -66 -110 0 -38 5 -48
35 -73 19 -16 40 -29 47 -29 10 0 13 -21 13 -80 l0 -80 -29 0 c-17 0 -33 -4
-36 -10 -3 -5 -31 -10 -61 -10 l-54 0 0 339 c0 294 2 340 16 351 24 21 15 82
-15 96 -26 13 -69 3 -83 -19 -13 -20 -9 -64 7 -77 13 -11 15 -62 15 -351 l0
-339 -54 0 c-30 0 -58 5 -61 10 -3 6 -19 10 -36 10 l-29 0 0 78 0 77 38 20
c27 15 41 31 51 61 13 38 13 44 -5 80 -12 23 -33 45 -52 54 -28 13 -32 20 -32
55 0 33 5 45 30 65 83 68 39 205 -65 205 -61 0 -97 -29 -109 -87 -11 -55 5
-94 51 -123 28 -17 32 -26 33 -64 0 -34 -5 -47 -24 -62 -31 -24 -50 -80 -41
-119 4 -16 20 -41 36 -54 28 -24 29 -27 29 -116 0 -83 2 -92 20 -97 13 -3 20
-14 20 -29 0 -14 10 -30 26 -41 25 -16 28 -16 56 0 16 9 50 17 74 17 l44 0 0
-830 0 -830 -45 0 -45 0 0 699 0 699 -140 140 -140 140 0 107 0 107 -92 -3
-93 -3 -3 227 -2 228 -30 -21 -30 -22 2 -236 3 -237 93 -3 92 -3 0 -87 0 -87
140 -141 140 -141 0 -121 0 -122 -74 0 c-77 0 -102 -12 -90 -44 7 -19 8 -19
97 -16 l67 2 0 -531 c0 -506 -1 -531 -18 -531 -10 0 -27 6 -38 14 -18 13 -19
32 -24 283 -5 266 -5 268 -27 271 -40 6 -46 -27 -41 -205 3 -89 3 -165 1 -167
-3 -3 -20 3 -39 11 l-34 17 0 212 0 212 68 18 c97 25 102 29 93 62 -35 121
-152 204 -309 218 -89 8 -167 -9 -272 -60 -47 -22 -88 -42 -93 -44 -4 -2 -6
146 -5 330 l3 333 158 3 157 3 0 -245 c0 -236 1 -245 20 -251 11 -3 24 -3 30
0 6 4 10 64 10 151 l0 144 80 0 80 0 0 30 0 30 -80 0 -80 0 0 100 0 100 -116
0 -116 0 2 198 c1 108 2 203 1 210 -3 32 -83 31 -103 -1 -15 -24 -8 -57 16
-72 24 -16 24 -19 26 -176 l1 -159 -47 0 -46 0 3 148 4 147 -38 35 -38 35 36
73 c78 163 190 289 352 398 154 104 265 145 478 178 55 8 269 -3 350 -19z
m-430 -215 c17 -18 17 -21 1 -45 -19 -29 -51 -32 -78 -8 -22 20 -23 31 -1 55
21 24 55 23 78 -2z m487 3 c23 -21 23 -36 -2 -58 -27 -24 -68 -13 -76 22 -12
45 41 70 78 36z m-481 -303 c39 -21 16 -90 -30 -90 -16 0 -41 30 -41 50 0 20
25 50 41 50 6 0 19 -5 30 -10z m450 0 c29 -16 26 -67 -6 -82 -21 -9 -28 -8
-45 7 -25 22 -26 61 -2 74 22 13 29 13 53 1z m-1232 -690 l-1 -475 -20 60
c-43 130 -59 244 -65 450 -6 204 2 292 33 407 15 52 18 56 35 45 18 -11 19
-32 18 -487z m132 -630 c106 -69 235 -106 337 -98 l52 5 0 -193 c0 -219 7
-208 -85 -148 -71 46 -204 170 -252 234 -48 65 -121 183 -134 217 -13 34 10
30 82 -17z m1753 -32 c-89 -177 -225 -324 -396 -427 l-38 -23 0 194 0 193 83
1 c102 0 221 38 298 94 85 61 96 54 53 -32z m-976 -921 c76 -49 73 -48 131
-12 l53 34 92 -34 c126 -46 124 -45 130 -61 7 -19 -11 -54 -28 -54 -7 0 -51
15 -98 34 l-86 33 -58 -33 -58 -33 -60 32 -59 31 -92 -32 c-108 -38 -111 -38
-125 -12 -18 34 3 52 111 91 57 20 105 37 107 38 1 1 19 -10 40 -22z m302
-356 c0 -11 -12 -29 -27 -41 -26 -20 -36 -21 -209 -18 -162 3 -184 5 -203 22
-12 11 -21 27 -21 38 0 17 13 18 230 18 220 0 230 -1 230 -19z"/>
<path d="M2068 4124 c-25 -13 -28 -20 -28 -69 0 -54 0 -55 29 -55 17 0 32 3
34 8 2 4 1 35 -2 69 l-6 61 -27 -14z"/>
<path d="M2980 4070 l0 -70 30 0 c30 0 30 0 30 58 0 53 -2 60 -25 70 -14 7
-28 12 -30 12 -3 0 -5 -31 -5 -70z"/>
<path d="M2026 3914 c-19 -18 -21 -50 -5 -60 8 -5 10 -31 6 -80 -6 -82 4 -101
48 -90 25 6 25 7 19 85 -5 54 -3 80 5 85 18 12 13 54 -8 66 -27 14 -47 13 -65
-6z"/>
<path d="M2986 3914 c-18 -18 -21 -50 -5 -60 7 -4 10 -34 7 -81 -2 -63 0 -77
15 -87 12 -8 22 -8 35 0 14 10 16 23 14 82 -2 41 1 79 8 92 9 17 8 26 -5 46
-18 28 -46 31 -69 8z"/>
<path d="M1742 3868 c-7 -7 -12 -21 -12 -33 0 -44 60 -63 80 -26 14 27 13 37
-6 55 -18 19 -45 21 -62 4z"/>
<path d="M3276 3861 c-25 -28 -6 -71 32 -71 50 0 69 41 34 73 -24 22 -45 21
-66 -2z"/>
<path d="M1932 3434 c-41 -29 -23 -84 28 -84 32 0 50 17 50 46 0 20 -32 54
-50 54 -3 0 -16 -7 -28 -16z"/>
<path d="M3093 3440 c-26 -10 -32 -57 -11 -78 19 -19 65 -14 82 9 16 23 12 47
-12 67 -18 14 -28 14 -59 2z"/>
<path d="M1722 3148 c-16 -16 -15 -63 2 -78 21 -16 56 -9 72 15 28 43 -38 99
-74 63z"/>
<path d="M3286 3144 c-33 -32 -8 -84 39 -84 15 0 31 10 41 25 15 23 15 27 0
50 -19 29 -56 33 -80 9z"/>
<path d="M2198 3075 c-10 -22 -9 -29 10 -47 18 -19 25 -20 47 -10 16 8 25 20
25 35 0 50 -62 66 -82 22z"/>
<path d="M2804 3075 c-10 -40 2 -57 38 -53 26 2 34 8 36 26 7 51 -62 76 -74
27z"/>
<path d="M1744 2980 c-66 -27 -85 -120 -35 -171 43 -43 101 -41 147 5 38 38
43 70 19 116 -25 48 -82 70 -131 50z m70 -82 c8 -13 8 -23 0 -35 -28 -45 -89
-9 -64 38 13 24 48 22 64 -3z"/>
<path d="M3251 2976 c-32 -18 -50 -53 -51 -99 0 -82 90 -124 166 -76 107 66
-5 236 -115 175z m77 -68 c7 -7 12 -22 12 -35 0 -27 -42 -42 -65 -23 -28 23
-11 70 25 70 9 0 21 -5 28 -12z"/>
<path d="M2078 2859 c-26 -14 -23 -65 3 -79 52 -28 102 28 64 70 -20 22 -41
25 -67 9z"/>
<path d="M2948 2858 c-24 -20 -28 -44 -12 -67 38 -54 115 0 79 55 -17 26 -43
31 -67 12z"/>
<path d="M1940 2192 c0 -63 4 -82 18 -94 41 -36 42 -34 42 71 l0 101 -30 0
-30 0 0 -78z"/>
<path d="M3080 2169 l0 -101 33 19 c32 19 32 20 35 101 l3 82 -36 0 -35 0 0
-101z"/>
</g>
</svg>
